inDegrees=no
num_controls=7
num_derivatives=13
num_iterations=123
num_multipliers=7
num_parameters=0
num_slacks=7
num_states=26
objective=0.496347
objective_accelerations=0.032264
objective_balance=0.003253
objective_effort=0.035376
objective_height=0.419874
objective_ligament=0.005580
solver_duration=1390.186922
status=Solve_Succeeded
success=true
DataType=double
version=3
OpenSimVersion=4.5
endheader
time	/jointset/ground_pelvis/pelvis_tilt/value	/jointset/ground_pelvis/pelvis_tx/value	/jointset/ground_pelvis/pelvis_ty/value	/jointset/hip_r/hip_flexion_r/value	/jointset/hip_r/hip_adduction_r/value	/jointset/hip_r/hip_rotation_r/value	/jointset/back/lumbar_extension/value	/jointset/patellofemoral_r/patellar_flexion_r/value	/jointset/knee_r/knee_flexion_r/value	/jointset/knee_r/knee_adduction_r/value	/jointset/knee_r/knee_rotation_r/value	/jointset/ankle_r/ankle_angle_r/value	/jointset/subtalar_r/subtalar_angle_r/value	/jointset/ground_pelvis/pelvis_tilt/speed	/jointset/ground_pelvis/pelvis_tx/speed	/jointset/ground_pelvis/pelvis_ty/speed	/jointset/hip_r/hip_flexion_r/speed	/jointset/hip_r/hip_adduction_r/speed	/jointset/hip_r/hip_rotation_r/speed	/jointset/back/lumbar_extension/speed	/jointset/patellofemoral_r/patellar_flexion_r/speed	/jointset/knee_r/knee_flexion_r/speed	/jointset/knee_r/knee_adduction_r/speed	/jointset/knee_r/knee_rotation_r/speed	/jointset/ankle_r/ankle_angle_r/speed	/jointset/subtalar_r/subtalar_angle_r/speed	/forceset/tau_hip_flexion_r	/forceset/tau_hip_adduction_r	/forceset/tau_hip_rotation_r	/forceset/tau_knee_flexion_r	/forceset/tau_ankle_angle_r	/forceset/tau_subtalar_angle_r	/forceset/tau_lumbar_extension	lambda_cid13_p0	lambda_cid14_p0	lambda_cid14_p1	lambda_cid14_p2	lambda_cid14_p3	lambda_cid14_p4	lambda_cid14_p5	/jointset/ground_pelvis/pelvis_tilt/accel	/jointset/ground_pelvis/pelvis_tx/accel	/jointset/ground_pelvis/pelvis_ty/accel	/jointset/hip_r/hip_flexion_r/accel	/jointset/hip_r/hip_adduction_r/accel	/jointset/hip_r/hip_rotation_r/accel	/jointset/back/lumbar_extension/accel	/jointset/patellofemoral_r/patellar_flexion_r/accel	/jointset/knee_r/knee_flexion_r/accel	/jointset/knee_r/knee_adduction_r/accel	/jointset/knee_r/knee_rotation_r/accel	/jointset/ankle_r/ankle_angle_r/accel	/jointset/subtalar_r/subtalar_angle_r/accel	gamma_cid13_p0	gamma_cid14_p0	gamma_cid14_p1	gamma_cid14_p2	gamma_cid14_p3	gamma_cid14_p4	gamma_cid14_p5
0.5	-0.1022909172695914	0.05046973758829788	0.8616000714410452	0.7040294656160313	-0.2304538288239844	-0.131599687243345	-0.3199195260732771	0.6953138100535817	0.6953138100537466	0.04102073169889699	0.1745266182769764	0.2646923374014062	0.05648263893606377	-0.2757420898717532	-0.09066489841566869	-0.3324470165768226	1.428705770942688	-0.008548653631613241	0.2579742958180408	-0.5975155985998362	1.674385072409511	1.674385072409552	-0.2774773670744606	-1.615413027536087e-05	0.6107625650586669	0.1629179636652617	-0.07907164356194209	-0.01595876139596628	0.008569352109661458	-0.3399995700312724	0.06237589934253713	-0.01144548598756099	0.138278133976003	-31.59878578841709	-22.27555559141445	-5.106727131622669	-3.02565671698151	3.473137069774161	-671.4377049232507	58.19558888167433	0.05988410736875352	0.291353432674588	-0.3349767037403319	-0.9101928568116718	-0.04980350929991645	-0.5630909542531042	1.364154947849388	-1.213455063322701	-1.213455063322679	0.3962338036778546	0.001237227710811204	-0.4956376749954958	-0.06824969484693173	-1.109527305994077e-07	-1.584619611129882e-07	5.411429216554709e-07	-1.239279390713551e-06	4.016463602479144e-08	-2.132210265943219e-07	8.389853265520944e-07
0.51	-0.1050448361561434	0.04957774909920025	0.8582595990510501	0.71826874890101	-0.2305425649994846	-0.1290469921370778	-0.3258258460685131	0.7119944883062184	0.7119944883062583	0.03826815398384081	0.1745264860047117	0.2707740351517979	0.05810700898516087	-0.2750016600060502	-0.08772537088577539	-0.3355720146860917	1.418955775224928	-0.009202550821950126	0.2525797515013201	-0.5836746487782246	1.661516870535531	1.661516870535543	-0.2729988018261008	-1.841385629518588e-05	0.6054905306026083	0.1619210519435408	-0.08448575397798844	-0.01408230874456176	0.009230056001245605	-0.3426564964414802	0.05786547542010417	-0.01085390913996567	0.1432126706861371	-30.63781591952213	-23.86976897876335	-5.251726319067411	-2.862288623508214	4.141219823518107	-674.6786421492205	57.93607078030549	0.08711377498261616	0.2963755970088434	-0.2899875723650032	-1.036686746797699	-0.07393945607618933	-0.5255659173642168	1.405127749681011	-1.358537449600437	-1.358537449604815	0.4795841830656388	-0.002390015005791048	-0.5559643991091855	-0.1207252020532	-9.092151002952324e-08	-1.030964230651719e-07	6.482507066334147e-07	-8.257710767819246e-07	-5.648290052603901e-09	-1.535664262604484e-07	7.291485130446019e-07
0.52	-0.1077901524742762	0.04871538052217397	0.8548901314383932	0.732404675465303	-0.2306379914733241	-0.1265478284233736	-0.3315915440154601	0.7285394776000828	0.7285394775999967	0.03556154518079753	0.1745260446467374	0.2768004169439895	0.059720347258797	-0.2740215761878858	-0.08474091600139828	-0.338246061109151	1.408034426805586	-0.009886713299312004	0.2472680173052928	-0.5693911889420536	1.647247280654961	1.647247280654944	-0.2682835846717173	-7.797127221140202e-05	0.5996993734186241	0.1607116085730787	-0.08989986439403465	-0.01220585609315508	0.009890759892820764	-0.3453134228516878	0.05335505149767184	-0.0102623322923677	0.148147207396271	-29.67030977182714	-25.46813954310088	-5.394959327363637	-2.702051619670497	4.795697306998798	-677.98928361306	57.73924251351103	0.1078148978610251	0.3003389035713586	-0.2447863664983802	-1.144463397128222	-0.05585656670491671	-0.5465289301144296	1.452656950761262	-1.493732664640593	-1.493732664640582	0.4435641848825891	-0.01022231026846283	-0.5994622205805753	-0.1107560245951953	-5.806081710320995e-08	7.114768125456776e-09	9.314343275653633e-07	-2.248212497234634e-08	-1.070303493715332e-07	-2.724062219425092e-08	5.685862114935257e-07
0.53	-0.110524659742481	0.04788306634460621	0.8514961937107191	0.7464259140097182	-0.2307398229666181	-0.1241037714335321	-0.3372121736188461	0.7449349825054024	0.7449349825052874	0.03290066236679129	0.1745259842668429	0.2827665774768356	0.06132142591393841	-0.2728423314503619	-0.08171424347291459	-0.3404620346690356	1.396018543186974	-0.01048911505475296	0.2415870740337445	-0.5546760299921359	1.631624457717319	1.631624457717266	-0.26382901451401	4.06299670392842e-05	0.5934511217556616	0.1594612997749646	-0.09498628231436976	-0.01067147287832468	0.0105616319353732	-0.3484830854649001	0.04954200566610446	-0.009736558350948086	0.1528324924606132	-28.69695119811691	-26.84979443742318	-5.530625212165486	-2.54096508147446	5.298849678392508	-681.3673570841872	57.63788845840251	0.1286152716285567	0.3049507770755676	-0.1980775647730202	-1.259354870368033	-0.06370784282177276	-0.5723465400339913	1.48975062855219	-1.630935351937498	-1.630935351942944	0.4561680074911657	0.01920325973614574	-0.6497776636270061	-0.1383749102728374	-2.999839094863777e-08	9.720238729578502e-08	1.158964398035786e-06	6.33278765420111e-07	-1.89569152717596e-07	7.32216124377952e-08	4.546461283946549e-07
0.54	-0.1132462473613251	0.047081242762241	0.8480824813046381	0.7603211529127186	-0.2308479336500406	-0.1217152177792759	-0.342683890580444	0.7611673835326234	0.7611673835324797	0.03028627816961479	0.1745263702830842	0.2886678012881576	0.06290876016052797	-0.2714376463156187	-0.07864279696088522	-0.3422009967904992	1.382834498522744	-0.01114255132451697	0.2361673501878374	-0.5396086605844117	1.614626505035216	1.614626505035127	-0.2589838613052477	1.130795486238791e-05	0.586712029113783	0.1579627268627178	-0.1000727002347035	-0.009137089663491672	0.01123250397791466	-0.3516527480781109	0.0457289598345392	-0.009210784409520978	0.1575177775249557	-27.71861750664416	-28.23807917371941	-5.666837504929143	-2.380492351612259	5.805129765204024	-684.8477795143602	57.55101762571272	0.1529029773048703	0.3092937002804954	-0.1493840788141753	-1.378095606252001	-0.06606346956952716	-0.4942850449862064	1.523099042322532	-1.768758613532793	-1.768758613532792	0.5216807950935883	-0.03980696055397505	-0.6976304163637701	-0.1604088474217413	-7.244685477694109e-09	1.65025628911738e-07	1.324920327570053e-06	1.125817119776603e-06	-2.51260098391551e-07	1.45068834078865e-07	3.922880742216289e-07
